<svg width="8" height="13" viewBox="0 0 8 13" fill="none" xmlns="http://www.w3.org/2000/svg">
<path fill-rule="evenodd" clip-rule="evenodd" d="M0.956951 0.726208C0.99806 0.684994 1.0469 0.652296 1.10066 0.629986C1.15443 0.607675 1.21207 0.596191 1.27028 0.596191C1.32849 0.596191 1.38613 0.607675 1.43989 0.629986C1.49366 0.652296 1.54249 0.684994 1.5836 0.726208L6.89422 6.03683C6.93544 6.07794 6.96813 6.12677 6.99045 6.18054C7.01276 6.2343 7.02424 6.29194 7.02424 6.35015C7.02424 6.40836 7.01276 6.466 6.99045 6.51977C6.96813 6.57353 6.93544 6.62237 6.89422 6.66348L1.5836 11.9741C1.5005 12.0572 1.3878 12.1039 1.27028 12.1039C1.15276 12.1039 1.04005 12.0572 0.956951 11.9741C0.873851 11.891 0.827167 11.7783 0.827167 11.6608C0.827167 11.5433 0.873851 11.4305 0.956951 11.3474L5.95513 6.35015L0.956951 1.35286C0.915737 1.31175 0.883039 1.26292 0.860729 1.20915C0.838418 1.15538 0.826935 1.09775 0.826935 1.03953C0.826935 0.981323 0.838418 0.923684 0.860729 0.869919C0.883039 0.816153 0.915737 0.767317 0.956951 0.726208Z" fill="#23A6F0"/>
</svg>
