<svg width="53" height="52" viewBox="0 0 53 52" fill="none" xmlns="http://www.w3.org/2000/svg">
<rect x="0.557693" y="0.00775146" width="51.7846" height="51.7846" rx="25.8923" fill="#23A6F0"/>
<g clip-path="url(#clip0_1579_116)">
<path fill-rule="evenodd" clip-rule="evenodd" d="M34.3316 32.6129C34.3316 32.6129 35.4404 32.6129 35.4404 31.4941C35.4404 30.3753 34.3316 27.0189 29.8963 27.0189C25.4611 27.0189 24.3522 30.3753 24.3522 31.4941C24.3522 32.6129 25.4611 32.6129 25.4611 32.6129H34.3316ZM25.4854 31.4941H34.3072C34.3124 31.4935 34.3175 31.4927 34.3227 31.4919L34.3316 31.4896C34.3293 31.1943 34.1464 30.3373 33.4889 29.5653C32.8768 28.8414 31.8013 28.1377 29.8963 28.1377C27.9925 28.1377 26.9169 28.8425 26.3038 29.5653C25.6462 30.3373 25.4622 31.1954 25.4611 31.4896C25.4692 31.4912 25.4773 31.4927 25.4854 31.4941ZM29.8963 24.7813C30.4845 24.7813 31.0485 24.5455 31.4644 24.1259C31.8803 23.7063 32.1139 23.1371 32.1139 22.5437C32.1139 21.9502 31.8803 21.3811 31.4644 20.9614C31.0485 20.5418 30.4845 20.3061 29.8963 20.3061C29.3082 20.3061 28.7441 20.5418 28.3282 20.9614C27.9123 21.3811 27.6787 21.9502 27.6787 22.5437C27.6787 23.1371 27.9123 23.7063 28.3282 24.1259C28.7441 24.5455 29.3082 24.7813 29.8963 24.7813ZM33.2228 22.5437C33.2228 22.9844 33.1367 23.4209 32.9695 23.8281C32.8024 24.2353 32.5573 24.6053 32.2485 24.917C31.9396 25.2287 31.5729 25.4759 31.1693 25.6446C30.7657 25.8133 30.3331 25.9001 29.8963 25.9001C29.4595 25.9001 29.0269 25.8133 28.6233 25.6446C28.2198 25.4759 27.853 25.2287 27.5442 24.917C27.2353 24.6053 26.9902 24.2353 26.8231 23.8281C26.6559 23.4209 26.5699 22.9844 26.5699 22.5437C26.5699 21.6535 26.9203 20.7998 27.5442 20.1703C28.168 19.5409 29.0141 19.1873 29.8963 19.1873C30.7785 19.1873 31.6246 19.5409 32.2485 20.1703C32.8723 20.7998 33.2228 21.6535 33.2228 22.5437ZM25.3901 27.3321C24.9465 27.1912 24.4893 27.0986 24.0262 27.0558C23.766 27.0308 23.5048 27.0185 23.2434 27.0189C18.8082 27.0189 17.6994 30.3753 17.6994 31.4941C17.6994 32.2403 18.0686 32.6129 18.8082 32.6129H23.4829C23.3186 32.2636 23.2366 31.8807 23.2434 31.4941C23.2434 30.3641 23.6614 29.2095 24.452 28.2451C24.7215 27.9162 25.0353 27.6085 25.3901 27.3321ZM23.1547 28.1377C21.3052 28.1601 20.2552 28.8537 19.6509 29.5653C18.9889 30.3417 18.8082 31.2021 18.8082 31.4941H22.1346C22.1346 30.3249 22.4928 29.1603 23.1547 28.1377ZM19.3626 23.1031C19.3626 22.2129 19.713 21.3592 20.3369 20.7297C20.9607 20.1003 21.8068 19.7467 22.689 19.7467C23.5712 19.7467 24.4173 20.1003 25.0412 20.7297C25.665 21.3592 26.0155 22.2129 26.0155 23.1031C26.0155 23.9932 25.665 24.847 25.0412 25.4764C24.4173 26.1059 23.5712 26.4595 22.689 26.4595C21.8068 26.4595 20.9607 26.1059 20.3369 25.4764C19.713 24.847 19.3626 23.9932 19.3626 23.1031ZM22.689 20.8655C22.1009 20.8655 21.5368 21.1012 21.1209 21.5208C20.705 21.9405 20.4714 22.5096 20.4714 23.1031C20.4714 23.6965 20.705 24.2657 21.1209 24.6853C21.5368 25.1049 22.1009 25.3407 22.689 25.3407C23.2772 25.3407 23.8412 25.1049 24.2571 24.6853C24.673 24.2657 24.9066 23.6965 24.9066 23.1031C24.9066 22.5096 24.673 21.9405 24.2571 21.5208C23.8412 21.1012 23.2772 20.8655 22.689 20.8655Z" fill="white"/>
</g>
<defs>
<clipPath id="clip0_1579_116">
<rect width="17.2615" height="14.2154" fill="white" transform="translate(17.8192 18.7078)"/>
</clipPath>
</defs>
</svg>

