<svg width="98" height="27" viewBox="0 0 98 27" fill="none" xmlns="http://www.w3.org/2000/svg">
<path d="M10.3051 6.7168C10.9956 6.93545 11.5365 7.30369 11.9277 7.82154C12.319 8.32788 12.5146 8.95505 12.5146 9.70305C12.5146 10.7618 12.1003 11.5788 11.2718 12.1542C10.4547 12.7181 9.25794 13 7.68139 13H1.43271V0.916922H7.33615C8.80914 0.916922 9.93689 1.19886 10.7194 1.76274C11.5134 2.32661 11.9105 3.09188 11.9105 4.05852C11.9105 4.64541 11.7666 5.16901 11.4789 5.62932C11.2027 6.08963 10.8115 6.45212 10.3051 6.7168ZM4.21182 3.02283V5.87098H6.99092C7.68139 5.87098 8.20499 5.75015 8.56172 5.50849C8.91846 5.26683 9.09683 4.91009 9.09683 4.43828C9.09683 3.96646 8.91846 3.61548 8.56172 3.38532C8.20499 3.14366 7.68139 3.02283 6.99092 3.02283H4.21182ZM7.47425 10.8941C8.21074 10.8941 8.76311 10.7733 9.13136 10.5316C9.51111 10.2899 9.70099 9.91594 9.70099 9.4096C9.70099 8.40843 8.95874 7.90785 7.47425 7.90785H4.21182V10.8941H7.47425ZM17.0857 4.93886C17.4079 4.49006 17.8395 4.15058 18.3803 3.92043C18.9327 3.69028 19.5656 3.5752 20.2791 3.5752V6.06086C19.9799 6.03785 19.7785 6.02634 19.675 6.02634C18.9039 6.02634 18.2998 6.24498 17.8625 6.68228C17.4252 7.10806 17.2066 7.75249 17.2066 8.61557V13H14.5138V3.71329H17.0857V4.93886ZM25.6474 3.5752C27.0858 3.5752 28.1906 3.92043 28.9616 4.61089C29.7326 5.28985 30.1181 6.31978 30.1181 7.70071V13H27.5979V11.8435C27.0916 12.7066 26.148 13.1381 24.767 13.1381C24.0536 13.1381 23.4321 13.0173 22.9028 12.7756C22.3849 12.5339 21.9879 12.2002 21.7117 11.7744C21.4356 11.3486 21.2975 10.8653 21.2975 10.3245C21.2975 9.46138 21.6197 8.78243 22.2641 8.2876C22.92 7.79277 23.927 7.54535 25.2849 7.54535H27.4253C27.4253 6.95846 27.2469 6.50966 26.8902 6.19895C26.5335 5.87674 25.9984 5.71563 25.2849 5.71563C24.79 5.71563 24.301 5.79618 23.8176 5.95729C23.3458 6.10689 22.9431 6.31403 22.6093 6.57871L21.6427 4.6972C22.149 4.34046 22.7532 4.06428 23.4552 3.86864C24.1686 3.67301 24.8994 3.5752 25.6474 3.5752ZM25.4402 11.3256C25.9005 11.3256 26.3091 11.2221 26.6658 11.0149C27.0225 10.7963 27.2757 10.4798 27.4253 10.0655V9.11615H25.5783C24.4736 9.11615 23.9212 9.47865 23.9212 10.2036C23.9212 10.5489 24.0536 10.825 24.3182 11.0322C24.5944 11.2278 24.9684 11.3256 25.4402 11.3256ZM38.2717 3.5752C39.4224 3.5752 40.3488 3.92043 41.0508 4.61089C41.7642 5.30135 42.121 6.32554 42.121 7.68345V13H39.4282V8.09772C39.4282 7.36123 39.2671 6.81461 38.9449 6.45788C38.6226 6.08963 38.1566 5.90551 37.5467 5.90551C36.8677 5.90551 36.3269 6.1184 35.9241 6.54418C35.5213 6.95846 35.3199 7.57988 35.3199 8.40843V13H32.6271V3.71329H35.1991V4.80077C35.5558 4.40951 35.9989 4.11031 36.5282 3.90317C37.0576 3.68452 37.6387 3.5752 38.2717 3.5752ZM54.1943 0.191937V13H51.6223V11.9298C50.9549 12.7353 49.9882 13.1381 48.7224 13.1381C47.8478 13.1381 47.0537 12.9425 46.3403 12.5512C45.6383 12.1599 45.0859 11.6018 44.6832 10.8768C44.2804 10.1518 44.079 9.31178 44.079 8.35665C44.079 7.40151 44.2804 6.56145 44.6832 5.83646C45.0859 5.11148 45.6383 4.55335 46.3403 4.16209C47.0537 3.77083 47.8478 3.5752 48.7224 3.5752C49.9077 3.5752 50.834 3.9492 51.5015 4.6972V0.191937H54.1943ZM49.1884 10.9286C49.8674 10.9286 50.4313 10.6985 50.8801 10.2382C51.3289 9.76634 51.5533 9.13917 51.5533 8.35665C51.5533 7.57412 51.3289 6.95271 50.8801 6.4924C50.4313 6.02058 49.8674 5.78468 49.1884 5.78468C48.498 5.78468 47.9283 6.02058 47.4795 6.4924C47.0307 6.95271 46.8063 7.57412 46.8063 8.35665C46.8063 9.13917 47.0307 9.76634 47.4795 10.2382C47.9283 10.6985 48.498 10.9286 49.1884 10.9286ZM68.0302 0.916922V13H65.7345L59.7102 5.66385V13H56.9483V0.916922H59.2614L65.2684 8.25308V0.916922H68.0302ZM74.5169 3.5752C75.9553 3.5752 77.0601 3.92043 77.8311 4.61089C78.6021 5.28985 78.9876 6.31978 78.9876 7.70071V13H76.4674V11.8435C75.9611 12.7066 75.0174 13.1381 73.6365 13.1381C72.923 13.1381 72.3016 13.0173 71.7723 12.7756C71.2544 12.5339 70.8574 12.2002 70.5812 11.7744C70.305 11.3486 70.1669 10.8653 70.1669 10.3245C70.1669 9.46138 70.4892 8.78243 71.1336 8.2876C71.7895 7.79277 72.7965 7.54535 74.1544 7.54535H76.2948C76.2948 6.95846 76.1164 6.50966 75.7597 6.19895C75.4029 5.87674 74.8678 5.71563 74.1544 5.71563C73.6595 5.71563 73.1705 5.79618 72.6871 5.95729C72.2153 6.10689 71.8125 6.31403 71.4788 6.57871L70.5122 4.6972C71.0185 4.34046 71.6227 4.06428 72.3246 3.86864C73.0381 3.67301 73.7689 3.5752 74.5169 3.5752ZM74.3097 11.3256C74.77 11.3256 75.1785 11.2221 75.5353 11.0149C75.892 10.7963 76.1452 10.4798 76.2948 10.0655V9.11615H74.4478C73.3431 9.11615 72.7907 9.47865 72.7907 10.2036C72.7907 10.5489 72.923 10.825 73.1877 11.0322C73.4639 11.2278 73.8379 11.3256 74.3097 11.3256ZM93.3898 3.5752C94.5521 3.5752 95.4727 3.92043 96.1517 4.61089C96.8421 5.28985 97.1874 6.31403 97.1874 7.68345V13H94.4946V8.09772C94.4946 7.36123 94.3392 6.81461 94.0285 6.45788C93.7293 6.08963 93.2978 5.90551 92.7339 5.90551C92.101 5.90551 91.6004 6.11265 91.2321 6.52692C90.8639 6.92969 90.6798 7.53385 90.6798 8.33938V13H87.987V8.09772C87.987 6.63625 87.4001 5.90551 86.2263 5.90551C85.6049 5.90551 85.11 6.11265 84.7418 6.52692C84.3736 6.92969 84.1894 7.53385 84.1894 8.33938V13H81.4966V3.71329H84.0686V4.78351C84.4138 4.39225 84.8339 4.09305 85.3287 3.88591C85.835 3.67877 86.3874 3.5752 86.9858 3.5752C87.6417 3.5752 88.2344 3.70754 88.7637 3.97221C89.2931 4.22538 89.7189 4.59938 90.0411 5.09421C90.4208 4.61089 90.8984 4.23689 91.4738 3.97221C92.0607 3.70754 92.6994 3.5752 93.3898 3.5752ZM10.3397 31.3912C10.3397 31.4257 10.3224 31.6674 10.2879 32.1162H3.26243C3.38902 32.6915 3.68822 33.1461 4.16003 33.4798C4.63185 33.8135 5.21874 33.9804 5.92071 33.9804C6.40403 33.9804 6.82982 33.9114 7.19806 33.7733C7.57782 33.6237 7.9288 33.3935 8.25102 33.0828L9.68372 34.6363C8.80914 35.6375 7.53179 36.1381 5.85166 36.1381C4.80446 36.1381 3.87809 35.9367 3.07255 35.5339C2.26702 35.1197 1.6456 34.55 1.20831 33.825C0.771015 33.1001 0.552369 32.2773 0.552369 31.3566C0.552369 30.4475 0.765262 29.6305 1.19105 28.9055C1.62834 28.169 2.22098 27.5994 2.96898 27.1966C3.72849 26.7823 4.57431 26.5752 5.50643 26.5752C6.41554 26.5752 7.23834 26.7708 7.97483 27.1621C8.71132 27.5534 9.28671 28.1172 9.70099 28.8537C10.1268 29.5787 10.3397 30.4245 10.3397 31.3912ZM5.52369 28.6121C4.91379 28.6121 4.40169 28.7847 3.98742 29.1299C3.57314 29.4751 3.31997 29.947 3.22791 30.5454H7.80222C7.71015 29.9585 7.45699 29.4924 7.04271 29.1472C6.62843 28.7904 6.12209 28.6121 5.52369 28.6121Z" fill="white"/>
</svg>
