<svg width="10" height="8" viewBox="0 0 10 8" fill="none" xmlns="http://www.w3.org/2000/svg">
<path fill-rule="evenodd" clip-rule="evenodd" d="M0.796143 4.36544C0.796143 4.22921 0.852968 4.09857 0.954118 4.00224C1.05527 3.90591 1.19246 3.8518 1.33551 3.8518H7.58456L5.26854 1.64724C5.16726 1.55079 5.11036 1.41998 5.11036 1.28358C5.11036 1.14718 5.16726 1.01637 5.26854 0.91992C5.36982 0.823471 5.50718 0.769287 5.65041 0.769287C5.79364 0.769287 5.931 0.823471 6.03228 0.91992L9.26845 4.00178C9.31868 4.04949 9.35853 4.10618 9.38572 4.16858C9.41292 4.23098 9.42691 4.29788 9.42691 4.36544C9.42691 4.433 9.41292 4.4999 9.38572 4.5623C9.35853 4.62471 9.31868 4.68139 9.26845 4.7291L6.03228 7.81096C5.931 7.90741 5.79364 7.9616 5.65041 7.9616C5.50718 7.9616 5.36982 7.90741 5.26854 7.81096C5.16726 7.71451 5.11036 7.5837 5.11036 7.4473C5.11036 7.3109 5.16726 7.18009 5.26854 7.08364L7.58456 4.87909H1.33551C1.19246 4.87909 1.05527 4.82497 0.954118 4.72864C0.852968 4.63232 0.796143 4.50167 0.796143 4.36544Z" fill="white"/>
</svg>
